CalSansUI-SemiBold.ufo
<glyph name="dollar" format="2">
  <advance width="581.3"/>
  <unicode hex="0024"/>
  <anchor x="305.625" y="653.0" name="_TopCurrency"/>
  <outline>
    <contour>
      <point x="296.625" y="27.0" type="curve" smooth="yes"/>
      <point x="446.52500000000003" y="27.0"/>
      <point x="544.5" y="99.75"/>
      <point x="544.5" y="226.425" type="curve" smooth="yes"/>
      <point x="544.5" y="477.65"/>
      <point x="207.05" y="357.7"/>
      <point x="207.05" y="491.9" type="curve" smooth="yes"/>
      <point x="207.05" y="530.95"/>
      <point x="242.9" y="558.175"/>
      <point x="307.625" y="558.175" type="curve" smooth="yes"/>
      <point x="368.3" y="558.175"/>
      <point x="407.15" y="532.9"/>
      <point x="439.775" y="478.95000000000005" type="curve"/>
      <point x="540.175" y="547.25" type="line"/>
      <point x="487.75" y="623.325"/>
      <point x="423.80000000000007" y="672.325"/>
      <point x="317.4" y="672.325" type="curve" smooth="yes"/>
      <point x="172.325" y="672.325"/>
      <point x="77.825" y="595.75"/>
      <point x="77.825" y="480.15" type="curve" smooth="yes"/>
      <point x="77.825" y="242.72500000000002"/>
      <point x="414.95" y="357.9"/>
      <point x="414.95" y="215.35000000000002" type="curve" smooth="yes"/>
      <point x="414.95" y="165.75"/>
      <point x="365.5" y="142.15"/>
      <point x="300.6" y="142.15" type="curve" smooth="yes"/>
      <point x="235.77499999999998" y="142.15"/>
      <point x="183.2" y="170.425"/>
      <point x="142.925" y="239.05" type="curve"/>
      <point x="39.15" y="167.4" type="line"/>
      <point x="101.25" y="69.575"/>
      <point x="187.575" y="27.0"/>
    </contour>
    <component base="verticalTopCurrencycomb" xOffset="305.625"/>
    <component base="verticalBottomCurrencycomb" xOffset="305.625"/>
  </outline>
</glyph>
<glyph name="comma" format="2">
  <advance width="254.64999999999998"/>
  <unicode hex="002C"/>
  <outline>
    <contour>
      <point x="90.275" y="141.35" type="line"/>
      <point x="84.95000000000002" y="70.925" type="line" smooth="yes"/>
      <point x="77.325" y="-26.049999999999997"/>
      <point x="49.575" y="-97.775"/>
      <point x="17.500000000000004" y="-158.6" type="curve"/>
      <point x="61.4" y="-183.375" type="line"/>
      <point x="134.9" y="-114.025"/>
      <point x="172.0" y="-34.949999999999996"/>
      <point x="190.625" y="68.9" type="curve" smooth="yes"/>
      <point x="201.97500000000002" y="132.7" type="line"/>
    </contour>
  </outline>
</glyph>
<glyph name="G" format="2">
  <advance width="739.425"/>
  <unicode hex="0047"/>
  <anchor x="404.77500000000003" y="0.0" name="bottom"/>
  <anchor x="527.05" y="9.0" name="ogonek"/>
  <anchor x="398.02500000000003" y="700.0" name="top"/>
  <outline>
    <contour>
      <point x="403.425" y="-13.0" type="curve" smooth="yes"/>
      <point x="520.825" y="-13.0"/>
      <point x="616.25" y="32.724999999999994"/>
      <point x="674.775" y="97.325" type="curve"/>
      <point x="674.775" y="393.325" type="line"/>
      <point x="363.675" y="393.325" type="line"/>
      <point x="363.675" y="281.525" type="line"/>
      <point x="607.4749999999999" y="281.85" type="line"/>
      <point x="554.9499999999999" y="302.47499999999997" type="line"/>
      <point x="554.9499999999999" y="105.625" type="line"/>
      <point x="588.075" y="177.325" type="line"/>
      <point x="541.925" y="129.45"/>
      <point x="475.5" y="104.85"/>
      <point x="405.775" y="104.85" type="curve" smooth="yes"/>
      <point x="266.67499999999995" y="104.85"/>
      <point x="167.825" y="209.95"/>
      <point x="167.825" y="349.0" type="curve" smooth="yes"/>
      <point x="167.825" y="492.1"/>
      <point x="259.7" y="595.15"/>
      <point x="406.45" y="595.15" type="curve" smooth="yes"/>
      <point x="477.05" y="595.15"/>
      <point x="529.5250000000001" y="571.125"/>
      <point x="574.45" y="520.625" type="curve"/>
      <point x="661.775" y="601.65" type="line"/>
      <point x="596.75" y="678.675"/>
      <point x="506.70000000000005" y="713.0"/>
      <point x="403.425" y="713.0" type="curve" smooth="yes"/>
      <point x="199.14999999999998" y="713.0"/>
      <point x="41.675" y="548.925"/>
      <point x="41.675" y="349.0" type="curve" smooth="yes"/>
      <point x="41.675" y="142.65"/>
      <point x="193.7" y="-13.0"/>
    </contour>
  </outline>
</glyph>
<glyph name="K" format="2">
  <advance width="632.4"/>
  <unicode hex="004B"/>
  <anchor x="313.575" y="0.0" name="bottom"/>
  <anchor x="464.925" y="0.0" name="ogonek"/>
  <anchor x="303.575" y="701.0" name="top"/>
  <outline>
    <contour>
      <point x="80.64999999999999" y="0.0" type="line"/>
      <point x="201.79999999999998" y="0.0" type="line"/>
      <point x="201.79999999999998" y="320.375" type="line"/>
      <point x="204.475" y="320.375" type="line"/>
      <point x="464.925" y="0.0" type="line"/>
      <point x="624.75" y="0.0" type="line"/>
      <point x="317.175" y="370.7" type="line"/>
      <point x="604.1" y="700.0" type="line"/>
      <point x="442.55" y="700.0" type="line"/>
      <point x="204.475" y="401.575" type="line"/>
      <point x="201.79999999999998" y="401.575" type="line"/>
      <point x="201.79999999999998" y="700.0" type="line"/>
      <point x="80.64999999999999" y="700.0" type="line"/>
    </contour>
  </outline>
</glyph>
<glyph name="asciicircum" format="2">
  <advance width="600.0"/>
  <unicode hex="005E"/>
  <outline>
    <contour>
      <point x="95.25" y="474.0" type="line"/>
      <point x="222.57500000000002" y="474.0" type="line"/>
      <point x="300.325" y="639.0" type="line"/>
      <point x="305.0" y="639.0" type="line"/>
      <point x="381.1" y="474.0" type="line"/>
      <point x="504.75" y="474.0" type="line"/>
      <point x="370.02500000000003" y="713.0" type="line"/>
      <point x="235.625" y="713.0" type="line"/>
    </contour>
  </outline>
</glyph>
<glyph name="k" format="2">
  <advance width="560.775"/>
  <unicode hex="006B"/>
  <anchor x="280.55" y="0.0" name="bottom"/>
  <anchor x="280.55" y="700.0" name="top"/>
  <outline>
    <contour>
      <point x="70.65" y="0.0" type="line"/>
      <point x="188.42499999999998" y="0.0" type="line"/>
      <point x="188.42499999999998" y="251.29999999999998" type="line"/>
      <point x="192.77499999999998" y="251.29999999999998" type="line"/>
      <point x="391.725" y="0.0" type="line"/>
      <point x="535.125" y="0.675" type="line"/>
      <point x="312.15" y="283.125" type="line"/>
      <point x="529.9" y="500.125" type="line"/>
      <point x="376.09999999999997" y="500.125" type="line"/>
      <point x="192.77499999999998" y="301.54999999999995" type="line"/>
      <point x="188.42499999999998" y="301.54999999999995" type="line"/>
      <point x="188.42499999999998" y="700.0" type="line"/>
      <point x="70.65" y="700.0" type="line"/>
    </contour>
  </outline>
</glyph>
<glyph name="s" format="2">
  <advance width="485.95"/>
  <unicode hex="0073"/>
  <anchor x="246.525" y="0.0" name="bottom"/>
  <anchor x="326.925" y="0.0" name="ogonek"/>
  <anchor x="252.825" y="500.125" name="top"/>
  <outline>
    <contour>
      <point x="245.85" y="-13.0" type="curve" smooth="yes"/>
      <point x="356.02500000000003" y="-13.0"/>
      <point x="439.675" y="49.75"/>
      <point x="439.675" y="148.45" type="curve" smooth="yes"/>
      <point x="439.675" y="237.95"/>
      <point x="385.95" y="277.55"/>
      <point x="262.175" y="304.9" type="curve" smooth="yes"/>
      <point x="201.79999999999998" y="319.175"/>
      <point x="177.425" y="334.425"/>
      <point x="177.425" y="364.975" type="curve" smooth="yes"/>
      <point x="177.425" y="393.175"/>
      <point x="208.60000000000002" y="417.45000000000005"/>
      <point x="252.14999999999998" y="417.45000000000005" type="curve" smooth="yes"/>
      <point x="294.1" y="417.45000000000005"/>
      <point x="324.7" y="399.475"/>
      <point x="352.7" y="356.5" type="curve"/>
      <point x="438.0" y="422.42499999999995" type="line"/>
      <point x="392.97499999999997" y="481.05"/>
      <point x="346.375" y="513.125"/>
      <point x="250.52499999999998" y="513.125" type="curve" smooth="yes"/>
      <point x="133.60000000000002" y="513.125"/>
      <point x="62.0" y="441.325"/>
      <point x="62.0" y="359.325" type="curve" smooth="yes"/>
      <point x="62.0" y="270.15"/>
      <point x="118.075" y="224.825"/>
      <point x="225.8" y="202.52500000000003" type="curve" smooth="yes"/>
      <point x="296.675" y="187.575"/>
      <point x="323.575" y="170.97500000000002"/>
      <point x="323.575" y="139.425" type="curve" smooth="yes"/>
      <point x="323.575" y="104.6"/>
      <point x="290.4" y="85.325"/>
      <point x="241.85000000000002" y="85.325" type="curve" smooth="yes"/>
      <point x="188.875" y="85.325"/>
      <point x="151.85" y="108.67500000000001"/>
      <point x="110.875" y="150.975" type="curve"/>
      <point x="35.95" y="73.375" type="line"/>
      <point x="95.3" y="15.700000000000001"/>
      <point x="154.4" y="-13.0"/>
    </contour>
  </outline>
</glyph>
<glyph name="micro" format="2">
  <advance width="586.05"/>
  <unicode hex="00B5"/>
  <anchor x="283.875" y="0.0" name="bottom"/>
  <anchor x="401.625" y="0.0" name="ogonek"/>
  <anchor x="293.875" y="500.125" name="top"/>
  <anchor x="515.4" y="500.125" name="topright"/>
  <outline>
    <contour>
      <point x="193.47500000000002" y="7.0749999999999975" type="line"/>
      <point x="212.375" y="-6.425"/>
      <point x="231.15000000000003" y="-12.325000000000001"/>
      <point x="255.6" y="-12.325000000000001" type="curve" smooth="yes"/>
      <point x="326.3" y="-12.325000000000001"/>
      <point x="371.975" y="27.675"/>
      <point x="396.27500000000003" y="67.925" type="curve"/>
      <point x="402.275" y="67.925" type="line"/>
      <point x="402.275" y="0.0" type="line"/>
      <point x="515.4" y="0.0" type="line"/>
      <point x="515.4" y="500.125" type="line"/>
      <point x="398.275" y="500.125" type="line"/>
      <point x="398.275" y="208.17499999999998" type="line" smooth="yes"/>
      <point x="398.275" y="136.3"/>
      <point x="354.425" y="91.375"/>
      <point x="289.975" y="91.375" type="curve" smooth="yes"/>
      <point x="229.05" y="91.375"/>
      <point x="187.77499999999998" y="136.3"/>
      <point x="187.77499999999998" y="208.17499999999998" type="curve" smooth="yes"/>
      <point x="187.77499999999998" y="500.125" type="line"/>
      <point x="70.65" y="500.125" type="line"/>
      <point x="70.65" y="-220.0" type="line"/>
      <point x="188.45" y="-220.0" type="line"/>
      <point x="188.45" y="7.0749999999999975" type="line"/>
    </contour>
  </outline>
</glyph>
<glyph name="paragraph" format="2">
  <advance width="587.3"/>
  <unicode hex="00B6"/>
  <outline>
    <contour>
      <point x="286.65" y="0.0" type="line"/>
      <point x="358.4" y="0.0" type="line"/>
      <point x="358.4" y="611.6999999999999" type="line"/>
      <point x="434.9" y="611.6999999999999" type="line"/>
      <point x="434.9" y="0.0" type="line"/>
      <point x="506.65" y="0.0" type="line"/>
      <point x="506.65" y="700.0" type="line"/>
      <point x="256.65" y="700.0" type="line" smooth="yes"/>
      <point x="122.65" y="700.0"/>
      <point x="40.65" y="636.0"/>
      <point x="40.65" y="510.0" type="curve" smooth="yes"/>
      <point x="40.65" y="384.0"/>
      <point x="122.65" y="318.0"/>
      <point x="256.65" y="318.0" type="curve" smooth="yes"/>
      <point x="286.65" y="318.0" type="line"/>
    </contour>
  </outline>
</glyph>
<glyph name="AE" format="2">
  <advance width="1006.5"/>
  <unicode hex="00C6"/>
  <anchor x="590.65" y="0.0" name="bottom"/>
  <anchor x="862.5" y="0.0" name="ogonek"/>
  <anchor x="590.65" y="700.0" name="top"/>
  <anchor x="561.625" y="700.0" name="top_ring"/>
  <outline>
    <contour>
      <point x="11.65" y="0.0" type="line"/>
      <point x="159.6" y="0.0" type="line"/>
      <point x="267.175" y="169.575" type="line"/>
      <point x="286.85" y="207.32500000000002" type="line"/>
      <point x="447.45000000000005" y="462.875" type="line" smooth="yes"/>
      <point x="478.65" y="512.05"/>
      <point x="506.025" y="557.15"/>
      <point x="525.4" y="599.875" type="curve"/>
      <point x="497.325" y="584.5" type="line"/>
      <point x="638.2" y="584.5" type="line"/>
      <point x="581.5" y="700.0" type="line"/>
      <point x="473.55" y="700.0" type="line"/>
    </contour>
    <contour>
      <point x="196.67499999999998" y="140.475" type="line"/>
      <point x="607.75" y="140.475" type="line"/>
      <point x="607.75" y="256.3" type="line"/>
      <point x="211.95" y="256.3" type="line"/>
    </contour>
    <component base="E" xOffset="449.07500000000005"/>
  </outline>
</glyph>
<glyph name="Dcroat" format="2">
  <advance width="728.2"/>
  <unicode hex="0110"/>
  <anchor x="339.25" y="0.0" name="bottom"/>
  <anchor x="142.85" y="349.0" name="center"/>
  <anchor x="357.25" y="700.0" name="top"/>
  <outline>
    <contour>
      <point x="11.299999999999999" y="305.075" type="line"/>
      <point x="368.35" y="305.075" type="line"/>
      <point x="368.35" y="408.17499999999995" type="line"/>
      <point x="11.299999999999999" y="408.17499999999995" type="line"/>
    </contour>
    <component base="D"/>
  </outline>
</glyph>
<glyph name="lslash" format="2">
  <advance width="275.29999999999995"/>
  <unicode hex="0142"/>
  <anchor x="136.975" y="0.0" name="bottom"/>
  <anchor x="136.975" y="393.0" name="center"/>
  <anchor x="195.2" y="0.0" name="ogonek"/>
  <anchor x="137.64999999999998" y="700.0" name="top"/>
  <anchor x="245.875" y="700.0" name="topright"/>
  <outline>
    <contour>
      <point x="2.7" y="252.75" type="line"/>
      <point x="130.3" y="334.9" type="line"/>
      <point x="140.975" y="334.9" type="line"/>
      <point x="271.92499999999995" y="418.725" type="line"/>
      <point x="271.92499999999995" y="527.8" type="line"/>
      <point x="140.975" y="443.975" type="line"/>
      <point x="130.3" y="443.975" type="line"/>
      <point x="2.7" y="361.825" type="line"/>
    </contour>
    <component base="l" xOffset="7.425000000000001"/>
  </outline>
</glyph>
<glyph name="Fhook" format="2">
  <advance width="554.05"/>
  <unicode hex="0191"/>
  <anchor x="142.52499999999998" y="0.0" name="bottom"/>
  <anchor x="114.42500000000001" y="0.0" name="ogonek"/>
  <anchor x="302.05" y="700.0" name="top"/>
  <outline>
    <contour>
      <point x="-8.275" y="-230.3" type="curve" smooth="yes"/>
      <point x="122.94999999999999" y="-229.325"/>
      <point x="203.42499999999998" y="-160.325"/>
      <point x="203.42499999999998" y="-22.174999999999997" type="curve" smooth="yes"/>
      <point x="203.42499999999998" y="0.0" type="line"/>
      <point x="143.5" y="160.32500000000002" type="line"/>
      <point x="81.625" y="0.0" type="line"/>
      <point x="81.625" y="-27.275" type="line" smooth="yes"/>
      <point x="81.625" y="-83.35"/>
      <point x="47.025000000000006" y="-116.225"/>
      <point x="0.20000000000000107" y="-116.225" type="curve" smooth="yes"/>
      <point x="-34.15" y="-116.225"/>
      <point x="-60.8" y="-100.8"/>
      <point x="-78.75" y="-78.175" type="curve"/>
      <point x="-156.0" y="-177.89999999999998" type="line"/>
      <point x="-119.0" y="-212.875"/>
      <point x="-67.3" y="-230.625"/>
    </contour>
    <component base="F" xOffset="0.9749999999999999"/>
  </outline>
</glyph>
<glyph name="tildecomb" format="2">
  <unicode hex="0303"/>
  <anchor x="0.0" y="500.125" name="_top"/>
  <anchor x="0.0" y="673.5" name="top"/>
  <outline>
    <contour>
      <point x="66.625" y="567.875" type="curve" smooth="yes"/>
      <point x="124.7" y="567.875"/>
      <point x="164.075" y="614.975"/>
      <point x="164.075" y="695.125" type="curve"/>
      <point x="97.875" y="695.125" type="line"/>
      <point x="97.875" y="664.175"/>
      <point x="86.6" y="648.5"/>
      <point x="69.325" y="648.5" type="curve" smooth="yes"/>
      <point x="30.4" y="648.5"/>
      <point x="20.3" y="712.45"/>
      <point x="-55.925000000000004" y="712.45" type="curve" smooth="yes"/>
      <point x="-119.075" y="712.45"/>
      <point x="-161.15" y="666.025"/>
      <point x="-161.15" y="586.55" type="curve"/>
      <point x="-96.275" y="586.55" type="line"/>
      <point x="-96.275" y="618.175"/>
      <point x="-81.3" y="633.175"/>
      <point x="-59.325" y="633.175" type="curve" smooth="yes"/>
      <point x="-17.35" y="633.175"/>
      <point x="-15.675" y="567.875"/>
    </contour>
  </outline>
</glyph>
<glyph name="slashlongcomb" format="2">
  <unicode hex="0338"/>
  <anchor x="288.0" y="264.0" name="_center"/>
  <outline>
    <contour>
      <point x="12.25" y="-40.0" type="line"/>
      <point x="94.75" y="-40.0" type="line"/>
      <point x="557.75" y="560.0" type="line"/>
      <point x="475.25" y="560.0" type="line"/>
    </contour>
  </outline>
</glyph>
<glyph name="Germandbls" format="2">
  <advance width="715.725"/>
  <unicode hex="1E9E"/>
  <outline>
    <contour>
      <point x="441.07500000000005" y="-13.0" type="curve" smooth="yes"/>
      <point x="594.0" y="-13.0"/>
      <point x="685.0" y="90.57499999999999"/>
      <point x="685.0" y="210.05" type="curve" smooth="yes"/>
      <point x="685.0" y="294.075"/>
      <point x="639.6500000000001" y="392.77500000000003"/>
      <point x="517.1500000000001" y="410.54999999999995" type="curve"/>
      <point x="517.1500000000001" y="413.9" type="line"/>
      <point x="672.875" y="688.575" type="line"/>
      <point x="672.875" y="700.0" type="line"/>
      <point x="80.64999999999999" y="700.0" type="line"/>
      <point x="80.64999999999999" y="0.0" type="line"/>
      <point x="201.79999999999998" y="0.0" type="line"/>
      <point x="201.79999999999998" y="584.175" type="line"/>
      <point x="484.825" y="584.175" type="line"/>
      <point x="484.825" y="581.85" type="line"/>
      <point x="474.79999999999995" y="571.175"/>
      <point x="466.8" y="558.15"/>
      <point x="457.475" y="540.85" type="curve" smooth="yes"/>
      <point x="352.975" y="355.825" type="line"/>
      <point x="352.975" y="346.2" type="line"/>
      <point x="503.2" y="362.4"/>
      <point x="567.25" y="288.775"/>
      <point x="567.25" y="211.425" type="curve" smooth="yes"/>
      <point x="567.25" y="132.2"/>
      <point x="512.25" y="93.375"/>
      <point x="438.675" y="93.375" type="curve" smooth="yes"/>
      <point x="402.65" y="93.375"/>
      <point x="373.57500000000005" y="99.75"/>
      <point x="345.65" y="108.375" type="curve"/>
      <point x="345.65" y="3.675" type="line"/>
      <point x="370.0" y="-8.325"/>
      <point x="412.775" y="-13.0"/>
    </contour>
  </outline>
</glyph>
<glyph name="dagger" format="2">
  <advance width="427.5"/>
  <unicode hex="2020"/>
  <outline>
    <contour>
      <point x="165.25" y="301.0" type="line"/>
      <point x="262.25" y="301.0" type="line"/>
      <point x="262.25" y="753.0" type="line"/>
      <point x="165.25" y="753.0" type="line"/>
    </contour>
    <contour>
      <point x="67.0" y="568.5" type="line"/>
      <point x="360.5" y="568.5" type="line"/>
      <point x="360.5" y="660.5" type="line"/>
      <point x="67.0" y="660.5" type="line"/>
    </contour>
  </outline>
</glyph>
<glyph name="upArrow" format="2">
  <advance width="600.0"/>
  <unicode hex="2191"/>
  <outline>
    <contour>
      <point x="244.15" y="40.675" type="line"/>
      <point x="355.2" y="41.0" type="line"/>
      <point x="355.2" y="467.70000000000005" type="line"/>
      <point x="362.55" y="471.05" type="line"/>
      <point x="477.125" y="343.125" type="line"/>
      <point x="553.375" y="409.6" type="line"/>
      <point x="300.0" y="672.0" type="line"/>
      <point x="46.625" y="409.6" type="line"/>
      <point x="120.175" y="343.125" type="line"/>
      <point x="236.8" y="470.725" type="line"/>
      <point x="244.15" y="467.375" type="line"/>
    </contour>
  </outline>
</glyph>
<glyph name="upDownArrow" format="2">
  <advance width="600.0"/>
  <unicode hex="2195"/>
  <outline>
    <contour>
      <point x="299.67499999999995" y="-30.075000000000003" type="line"/>
      <point x="553.05" y="232.325" type="line"/>
      <point x="479.5" y="298.8" type="line"/>
      <point x="362.875" y="171.20000000000002" type="line"/>
      <point x="355.525" y="174.55" type="line"/>
      <point x="355.525" y="562.0999999999999" type="line"/>
      <point x="362.875" y="565.45" type="line"/>
      <point x="477.45" y="437.52500000000003" type="line"/>
      <point x="553.7" y="504.0" type="line"/>
      <point x="300.325" y="766.4" type="line"/>
      <point x="46.95" y="504.0" type="line"/>
      <point x="120.5" y="437.52500000000003" type="line"/>
      <point x="237.125" y="565.125" type="line"/>
      <point x="244.47500000000002" y="561.775" type="line"/>
      <point x="244.47500000000002" y="174.22500000000002" type="line"/>
      <point x="237.125" y="170.875" type="line"/>
      <point x="122.55" y="298.8" type="line"/>
      <point x="46.3" y="232.325" type="line"/>
    </contour>
  </outline>
</glyph>
<glyph name="upBlackTriangle" format="2">
  <advance width="885.0"/>
  <unicode hex="25B2"/>
  <outline>
    <contour>
      <point x="30.0" y="0.0" type="line"/>
      <point x="855.0" y="0.0" type="line"/>
      <point x="443.0" y="715.0" type="line"/>
    </contour>
  </outline>
</glyph>
<glyph name="rightWhiteSmallTriangle" format="2">
  <advance width="351.875"/>
  <unicode hex="25B9"/>
  <outline>
    <contour>
      <point x="90.0" y="225.225" type="line"/>
      <point x="325.125" y="361.35" type="line"/>
      <point x="90.0" y="496.47499999999997" type="line"/>
    </contour>
    <contour>
      <point x="139.5" y="410.85" type="line"/>
      <point x="230.85" y="361.35" type="line"/>
      <point x="139.5" y="311.85" type="line"/>
    </contour>
  </outline>
</glyph>
<glyph name="whiteDiamond" format="2">
  <advance width="786.0"/>
  <unicode hex="25C7"/>
  <outline>
    <contour>
      <point x="393.0" y="0.0" type="line"/>
      <point x="756.0" y="363.0" type="line"/>
      <point x="393.0" y="726.0" type="line"/>
      <point x="30.0" y="363.0" type="line"/>
    </contour>
    <contour>
      <point x="393.0" y="102.0" type="line"/>
      <point x="131.0" y="363.0" type="line"/>
      <point x="393.0" y="624.0" type="line"/>
      <point x="654.0" y="363.0" type="line"/>
    </contour>
  </outline>
</glyph>
<glyph name="whiteSmallStar" format="2">
  <advance width="480.0"/>
  <unicode hex="2B52"/>
  <outline>
    <contour>
      <point x="116.0" y="199.0" type="line"/>
      <point x="239.0" y="289.0" type="line"/>
      <point x="363.0" y="199.0" type="line"/>
      <point x="316.0" y="344.0" type="line"/>
      <point x="440.0" y="434.0" type="line"/>
      <point x="287.0" y="434.0" type="line"/>
      <point x="239.0" y="579.0" type="line"/>
      <point x="192.0" y="434.0" type="line"/>
      <point x="40.0" y="434.0" type="line"/>
      <point x="163.0" y="344.0" type="line"/>
    </contour>
    <contour>
      <point x="178.15" y="283.85" type="line"/>
      <point x="205.475" y="358.025" type="line"/>
      <point x="139.575" y="400.54999999999995" type="line"/>
      <point x="218.425" y="397.85" type="line"/>
      <point x="239.0" y="474.05" type="line"/>
      <point x="261.25" y="397.85" type="line"/>
      <point x="339.425" y="400.54999999999995" type="line"/>
      <point x="273.525" y="358.025" type="line"/>
      <point x="302.2" y="283.85" type="line"/>
      <point x="239.0" y="333.8" type="line"/>
    </contour>
  </outline>
</glyph>
<glyph name="saltillo" format="2">
  <advance width="273.7"/>
  <unicode hex="A78C"/>
  <outline>
    <contour>
      <point x="97.975" y="263.0" type="line"/>
      <point x="175.72500000000002" y="263.0" type="line"/>
      <point x="198.72500000000002" y="577.0" type="line"/>
      <point x="198.72500000000002" y="700.0" type="line"/>
      <point x="74.975" y="700.0" type="line"/>
      <point x="74.975" y="577.0" type="line"/>
    </contour>
  </outline>
</glyph>
<glyph name="C.ss10" format="2">
  <advance width="586.35"/>
  <anchor x="405.75" y="0.0" name="bottom"/>
  <anchor x="508.75" y="0.0" name="ogonek"/>
  <anchor x="405.75" y="700.0" name="top"/>
  <outline>
    <contour>
      <point x="403.04999999999995" y="-13.0" type="curve" smooth="yes"/>
      <point x="459.34999999999997" y="-13.0"/>
      <point x="508.32500000000005" y="-4.025"/>
      <point x="554.0" y="19.0" type="curve"/>
      <point x="563.375" y="159.875" type="line"/>
      <point x="520.025" y="124.85"/>
      <point x="469.0" y="108.85"/>
      <point x="405.375" y="108.85" type="curve" smooth="yes"/>
      <point x="265.175" y="108.85"/>
      <point x="167.825" y="208.325"/>
      <point x="167.825" y="349.0" type="curve" smooth="yes"/>
      <point x="167.825" y="488.0"/>
      <point x="257.875" y="591.15"/>
      <point x="403.04999999999995" y="591.15" type="curve" smooth="yes"/>
      <point x="465.05" y="591.15"/>
      <point x="519.7" y="573.45"/>
      <point x="564.0" y="530.75" type="curve"/>
      <point x="564.0" y="673.325" type="line"/>
      <point x="521.4000000000001" y="699.65"/>
      <point x="464.375" y="713.0"/>
      <point x="403.04999999999995" y="713.0" type="curve" smooth="yes"/>
      <point x="190.95" y="713.0"/>
      <point x="41.675" y="550.9749999999999"/>
      <point x="41.675" y="349.0" type="curve" smooth="yes"/>
      <point x="41.675" y="147.7"/>
      <point x="197.0" y="-13.0"/>
    </contour>
  </outline>
</glyph>
<glyph name="caroncomb.alt" format="2">
  <anchor x="37.0" y="700.0" name="_topright"/>
  <outline>
    <contour>
      <point x="9.1" y="540.725" type="line"/>
      <point x="95.35" y="540.725" type="line"/>
      <point x="191.45000000000002" y="700.0" type="line"/>
      <point x="54.25" y="700.0" type="line"/>
    </contour>
  </outline>
</glyph>
<glyph name="cedi.tf" format="2">
  <advance width="596.0"/>
  <outline>
    <contour>
      <point x="338.675" y="23.75" type="curve" smooth="yes"/>
      <point x="448.075" y="23.75"/>
      <point x="534.05" y="70.475"/>
      <point x="589.325" y="137.39999999999998" type="curve"/>
      <point x="500.29999999999995" y="214.075" type="line"/>
      <point x="457.4" y="159.45"/>
      <point x="400.75" y="138.225"/>
      <point x="341.0" y="138.225" type="curve" smooth="yes"/>
      <point x="234.85000000000002" y="138.225"/>
      <point x="137.5" y="208.325"/>
      <point x="137.5" y="349.0" type="curve" smooth="yes"/>
      <point x="137.5" y="489.35"/>
      <point x="231.60000000000002" y="561.775"/>
      <point x="338.0" y="561.775" type="curve" smooth="yes"/>
      <point x="401.975" y="561.775"/>
      <point x="454.45" y="541.125"/>
      <point x="499.375" y="483.875" type="curve"/>
      <point x="586.7" y="564.9" type="line"/>
      <point x="521.675" y="641.925"/>
      <point x="431.625" y="676.25"/>
      <point x="338.675" y="676.25" type="curve" smooth="yes"/>
      <point x="163.325" y="676.25"/>
      <point x="12.700000000000001" y="544.2249999999999"/>
      <point x="12.700000000000001" y="349.0" type="curve" smooth="yes"/>
      <point x="12.700000000000001" y="154.45"/>
      <point x="169.375" y="23.75"/>
    </contour>
    <contour>
      <point x="285.95" y="-69.0" type="line"/>
      <point x="370.1" y="-69.0" type="line"/>
      <point x="370.1" y="775.0" type="line"/>
      <point x="285.95" y="775.0" type="line"/>
    </contour>
  </outline>
</glyph>
<glyph name="commaaccentcomb.loclMAH" format="2">
  <anchor x="0.0" y="0.0" name="_bottom"/>
  <outline>
    <contour>
      <point x="5.224999999999999" y="-220.325" type="curve" smooth="yes"/>
      <point x="59.125" y="-220.325"/>
      <point x="113.5" y="-187.39999999999998"/>
      <point x="113.5" y="-121.275" type="curve" smooth="yes"/>
      <point x="113.5" y="-75.55"/>
      <point x="73.15" y="-30.325"/>
      <point x="0.32499999999999996" y="-35.55" type="curve"/>
      <point x="-24.1" y="-93.4" type="line"/>
      <point x="-20.425000000000004" y="-96.4" type="line"/>
      <point x="-14.1" y="-94.4"/>
      <point x="-7.450000000000001" y="-93.4"/>
      <point x="2.5499999999999994" y="-93.4" type="curve" smooth="yes"/>
      <point x="20.4" y="-93.4"/>
      <point x="36.324999999999996" y="-103.025"/>
      <point x="36.324999999999996" y="-121.275" type="curve" smooth="yes"/>
      <point x="36.324999999999996" y="-142.27499999999998"/>
      <point x="20.299999999999997" y="-153.175"/>
      <point x="-0.8500000000000014" y="-153.175" type="curve" smooth="yes"/>
      <point x="-18.45" y="-153.175"/>
      <point x="-33.725" y="-145.52499999999998"/>
      <point x="-46.35" y="-132.925" type="curve"/>
      <point x="-87.8" y="-186.7" type="line"/>
      <point x="-54.675" y="-213.4"/>
      <point x="-32.45" y="-220.325"/>
    </contour>
  </outline>
</glyph>
<glyph name="f_f_i.ss11" format="2">
  <advance width="882.625"/>
  <anchor x="766.75" y="0.0" name="bottom_1"/>
  <anchor x="740.2249999999999" y="0.0" name="ogonek_1"/>
  <anchor x="766.75" y="500.125" name="top_1"/>
  <anchor x="364.275" y="0.0" name="caret_1"/>
  <anchor x="661.375" y="0.0" name="caret_2"/>
  <outline>
    <contour>
      <point x="114.3" y="0.0" type="line"/>
      <point x="231.425" y="0.0" type="line"/>
      <point x="231.425" y="513.175" type="line" smooth="yes"/>
      <point x="231.425" y="570.45"/>
      <point x="266.4" y="605.925"/>
      <point x="323.1" y="605.925" type="curve" smooth="yes"/>
      <point x="376.15" y="605.925"/>
      <point x="411.075" y="571.8"/>
      <point x="411.075" y="517.9000000000001" type="curve" smooth="yes"/>
      <point x="411.075" y="0.0" type="line"/>
      <point x="528.2" y="0.0" type="line"/>
      <point x="528.2" y="513.175" type="line" smooth="yes"/>
      <point x="528.2" y="570.45"/>
      <point x="563.175" y="605.925"/>
      <point x="619.875" y="605.925" type="curve" smooth="yes"/>
      <point x="672.925" y="605.925"/>
      <point x="707.875" y="571.125"/>
      <point x="707.875" y="516.55" type="curve"/>
      <point x="694.175" y="544.6500000000001" type="line"/>
      <point x="827.3" y="544.6500000000001" type="line"/>
      <point x="824.325" y="517.85" type="line"/>
      <point x="824.325" y="636.8"/>
      <point x="742.175" y="713.0"/>
      <point x="619.875" y="713.0" type="curve" smooth="yes"/>
      <point x="546.2750000000001" y="713.0"/>
      <point x="481.8" y="674.6"/>
      <point x="458.9" y="609.95" type="curve"/>
      <point x="528.2" y="638.825" type="line"/>
      <point x="412.45000000000005" y="638.825" type="line"/>
      <point x="481.75" y="608.95" type="line"/>
      <point x="458.525" y="674.925"/>
      <point x="394.725" y="713.0"/>
      <point x="323.1" y="713.0" type="curve" smooth="yes"/>
      <point x="200.075" y="713.0"/>
      <point x="114.3" y="636.8"/>
      <point x="114.3" y="519.2" type="curve" smooth="yes"/>
    </contour>
    <contour>
      <point x="19.025" y="395.725" type="line"/>
      <point x="648.0" y="395.725" type="line"/>
      <point x="648.0" y="500.125" type="line"/>
      <point x="19.025" y="500.125" type="line"/>
    </contour>
    <component base="idotless" xOffset="637.2"/>
  </outline>
</glyph>
<glyph name="fl.ss11" format="2">
  <advance width="611.675"/>
  <anchor x="367.65" y="0.0" name="caret_1"/>
  <outline>
    <contour>
      <point x="114.3" y="0.0" type="line"/>
      <point x="231.425" y="0.0" type="line"/>
      <point x="231.425" y="509.8" type="line" smooth="yes"/>
      <point x="231.425" y="571.375"/>
      <point x="267.3" y="605.925"/>
      <point x="329.85" y="605.925" type="curve" smooth="yes"/>
      <point x="390.375" y="605.925"/>
      <point x="424.575" y="573.4"/>
      <point x="424.575" y="515.2" type="curve" smooth="yes"/>
      <point x="424.575" y="0.0" type="line"/>
      <point x="541.7" y="0.0" type="line"/>
      <point x="541.7" y="507.1" type="line" smooth="yes"/>
      <point x="541.7" y="633.5749999999999"/>
      <point x="460.3" y="713.0"/>
      <point x="329.85" y="713.0" type="curve" smooth="yes"/>
      <point x="199.97500000000002" y="713.0"/>
      <point x="114.3" y="631.625"/>
      <point x="114.3" y="508.4" type="curve" smooth="yes"/>
    </contour>
    <contour>
      <point x="19.025" y="395.725" type="line"/>
      <point x="367.975" y="395.725" type="line"/>
      <point x="367.975" y="500.125" type="line"/>
      <point x="19.025" y="500.125" type="line"/>
    </contour>
  </outline>
</glyph>
<glyph name="one.ss10.numr" format="2">
  <advance width="184.0"/>
  <outline>
    <contour>
      <point x="61.425" y="319.22499999999997" type="line"/>
      <point x="134.0" y="319.22499999999997" type="line"/>
      <point x="134.0" y="699.6750000000001" type="line"/>
      <point x="9.400000000000002" y="700.0" type="line"/>
      <point x="9.400000000000002" y="628.4" type="line"/>
      <point x="61.425" y="628.075" type="line"/>
      <point x="61.425" y="627.075" type="line"/>
    </contour>
  </outline>
</glyph>
<glyph name="u.ss10" format="2">
  <advance width="580.825"/>
  <anchor x="291.925" y="0.0" name="bottom"/>
  <anchor x="288.55" y="0.0" name="ogonek"/>
  <anchor x="293.6" y="500.125" name="top"/>
  <anchor x="513.15" y="500.125" name="topright"/>
  <outline>
    <contour>
      <point x="291.925" y="-12.0" type="curve" smooth="yes"/>
      <point x="435.825" y="-12.0"/>
      <point x="515.175" y="69.05"/>
      <point x="515.175" y="202.97500000000002" type="curve" smooth="yes"/>
      <point x="515.175" y="500.125" type="line"/>
      <point x="398.375" y="500.125" type="line"/>
      <point x="398.375" y="225.25" type="line" smooth="yes"/>
      <point x="398.375" y="133.625"/>
      <point x="366.17499999999995" y="91.375"/>
      <point x="293.275" y="91.375" type="curve" smooth="yes"/>
      <point x="222.4" y="91.375"/>
      <point x="182.77499999999998" y="133.625"/>
      <point x="182.77499999999998" y="225.25" type="curve" smooth="yes"/>
      <point x="182.77499999999998" y="500.125" type="line"/>
      <point x="65.65" y="500.125" type="line"/>
      <point x="65.65" y="202.97500000000002" type="line" smooth="yes"/>
      <point x="65.65" y="69.05"/>
      <point x="149.375" y="-12.0"/>
    </contour>
  </outline>
</glyph>
<glyph name="zero.numr" format="2">
  <advance width="364.35"/>
  <outline>
    <contour>
      <point x="182.175" y="308.0" type="curve" smooth="yes"/>
      <point x="262.5" y="308.0"/>
      <point x="327.3" y="366.975"/>
      <point x="327.3" y="454.75" type="curve" smooth="yes"/>
      <point x="327.3" y="561.2" type="line" smooth="yes"/>
      <point x="327.3" y="644.75"/>
      <point x="265.1" y="706.0"/>
      <point x="182.175" y="706.0" type="curve" smooth="yes"/>
      <point x="101.075" y="706.0"/>
      <point x="37.05" y="644.55"/>
      <point x="37.05" y="560.55" type="curve" smooth="yes"/>
      <point x="37.05" y="453.45000000000005" type="line" smooth="yes"/>
      <point x="37.05" y="375.125"/>
      <point x="95.075" y="308.0"/>
    </contour>
    <contour>
      <point x="182.175" y="376.575" type="curve" smooth="yes"/>
      <point x="135.89999999999998" y="376.575"/>
      <point x="112.975" y="414.225"/>
      <point x="112.975" y="461.475" type="curve" smooth="yes"/>
      <point x="112.975" y="553.8" type="line" smooth="yes"/>
      <point x="112.975" y="600.75"/>
      <point x="133.875" y="637.425"/>
      <point x="182.175" y="637.425" type="curve" smooth="yes"/>
      <point x="230.82500000000002" y="637.425"/>
      <point x="252.05" y="601.8"/>
      <point x="252.05" y="553.15" type="curve" smooth="yes"/>
      <point x="252.05" y="460.825" type="line" smooth="yes"/>
      <point x="252.05" y="413.55"/>
      <point x="229.125" y="376.575"/>
    </contour>
  </outline>
</glyph>
